<svg width="70" height="70" viewBox="0 0 70 70" fill="none" xmlns="http://www.w3.org/2000/svg">
<g clip-path="url(#clip0)">
<path d="M10.951 18.8975H11.0257C13.8348 18.8945 16.1109 16.6184 16.1139 13.8093V12.1151C16.1109 9.30655 13.8348 7.03047 11.0257 7.02686H10.951C8.14186 7.03047 5.86577 9.30655 5.86276 12.1151V13.8087C5.86517 16.6178 8.14186 18.8945 10.951 18.8975ZM8.0214 12.1157C8.0232 10.4985 9.3332 9.1879 10.951 9.18609H11.0257C12.6428 9.1879 13.9534 10.4985 13.9552 12.1157V13.8093C13.9534 15.4265 12.6428 16.7371 11.0257 16.7389H10.951C9.3332 16.7371 8.0232 15.4265 8.0214 13.8093V12.1157Z" fill="white"/>
<path d="M16.9758 20.5215H14.8461C14.5714 20.5221 14.3076 20.6269 14.1077 20.8148L11.1432 23.5962L8.29791 20.8268C8.09614 20.6311 7.82631 20.5215 7.54504 20.5215H5.28401C3.79995 20.5215 2.38455 21.1455 1.38353 22.2404C0.382514 23.336 -0.111972 24.802 0.021738 26.2801V38.6669C0.021738 40.4949 1.50339 41.9765 3.33136 41.9777H3.37051C3.8138 41.9729 4.25167 41.8765 4.65642 41.6947L5.22499 64.0941C5.27377 65.4721 6.12783 66.693 7.4059 67.211C8.68398 67.7284 10.147 67.4471 11.1414 66.4912C12.137 67.4483 13.6029 67.7296 14.8822 67.2086C16.1615 66.6876 17.0138 65.4625 17.0583 64.0826L17.6263 41.7127C18.6496 42.1494 19.8235 42.0428 20.7516 41.4296C21.6798 40.8159 22.2387 39.7781 22.2387 38.6651V26.2807C22.3718 24.8026 21.8779 23.3366 20.8769 22.241C19.8753 21.1455 18.4599 20.5215 16.9758 20.5215ZM13.5608 65.3077C12.8206 65.3071 12.2207 64.7072 12.2201 63.9676V41.5296H10.0614V63.9676C10.0608 64.6958 9.47901 65.2903 8.75083 65.3065C8.02266 65.3228 7.41494 64.7548 7.38181 64.0272L6.73916 38.7115H15.5435L14.9003 64.0152C14.8768 64.7373 14.2829 65.3101 13.5608 65.3077ZM20.0849 26.1198C20.0813 26.156 20.0794 26.1927 20.0794 26.2289V38.6651C20.0722 39.2975 19.5573 39.8071 18.9242 39.8071C18.2918 39.8071 17.7769 39.2975 17.7696 38.6651V36.0288L17.7823 35.5277H17.7696V30.3407H15.611V36.0035L15.5971 36.5528H6.68495L6.65785 35.4735H6.6446V30.3413H4.48597V38.6049C4.50042 39.2529 3.99389 39.7926 3.34642 39.8197C3.03865 39.8233 2.74232 39.7035 2.52308 39.4872C2.30445 39.2704 2.18097 38.9759 2.18097 38.6675V26.2295C2.18097 26.1927 2.17917 26.1566 2.17555 26.1204C2.08641 25.2411 2.37371 24.3653 2.96637 23.71C3.55903 23.0547 4.40104 22.6807 5.28461 22.6807H7.10716L10.3764 25.8621C10.3813 25.8669 10.3867 25.8699 10.3921 25.8747C10.4246 25.9054 10.4583 25.9337 10.4945 25.9602C10.4969 25.962 10.4993 25.9644 10.5023 25.9663C10.5415 25.994 10.5824 26.0193 10.6246 26.0415C10.633 26.0458 10.6414 26.05 10.6505 26.0542C10.6896 26.0741 10.73 26.0909 10.7709 26.106C10.7746 26.1072 10.7782 26.109 10.7824 26.1102C10.8264 26.1247 10.8709 26.1367 10.9167 26.1457C10.9275 26.1475 10.9384 26.1494 10.9486 26.1512C10.989 26.1584 11.0299 26.1626 11.0709 26.165C11.0769 26.165 11.0829 26.1662 11.0896 26.1668C11.1353 26.168 11.1811 26.1668 11.2269 26.1626C11.2377 26.1614 11.2486 26.1602 11.2594 26.159C11.3046 26.1536 11.3497 26.1457 11.3937 26.1349L11.3985 26.1337C11.4461 26.121 11.4931 26.1054 11.5389 26.0861C11.5425 26.0849 11.5461 26.0843 11.5497 26.0825C11.5539 26.0813 11.5575 26.0783 11.5612 26.0771C11.6497 26.0379 11.7328 25.9879 11.8081 25.9271C11.8177 25.9187 11.8274 25.9108 11.837 25.9024C11.8466 25.894 11.8587 25.8849 11.8689 25.8753L15.2737 22.6807H16.977C17.86 22.6807 18.702 23.0547 19.2947 23.71C19.8867 24.3653 20.174 25.2411 20.0849 26.1198Z" fill="white"/>
<path d="M58.6921 18.8975H58.7674C61.5759 18.8945 63.852 16.6184 63.8556 13.8093V12.1151C63.852 9.30655 61.5759 7.03047 58.7674 7.02686H58.6921C55.883 7.03047 53.6069 9.30655 53.6039 12.1151V13.8087C53.6069 16.6178 55.883 18.8945 58.6921 18.8975ZM55.7625 12.1157C55.7643 10.4985 57.0749 9.1879 58.6921 9.18609H58.7674C60.3845 9.1879 61.6951 10.4985 61.6969 12.1157V13.8093C61.6951 15.4265 60.3845 16.7371 58.7674 16.7389H58.6921C57.0749 16.7371 55.7643 15.4265 55.7625 13.8093V12.1157Z" fill="white"/>
<path d="M64.7175 20.5215H62.5871C62.3125 20.5221 62.0487 20.6269 61.8487 20.8148L58.8842 23.5956L56.039 20.8268C55.8372 20.6311 55.5674 20.5215 55.2861 20.5215H53.0251C51.541 20.5215 50.1256 21.1455 49.124 22.2404C48.123 23.336 47.6291 24.802 47.7622 26.2801V38.6669C47.7628 40.4949 49.2444 41.9765 51.0724 41.9777H51.111C51.5542 41.9723 51.9921 41.8759 52.3963 41.6947L52.9648 64.0935C53.0136 65.4716 53.8677 66.6924 55.1457 67.2104C56.4238 67.7284 57.8868 67.4465 58.8812 66.4912C59.8774 67.4483 61.3428 67.729 62.6221 67.208C63.9013 66.6876 64.7542 65.4625 64.7982 64.0821L65.3661 41.7127C66.3894 42.1488 67.5633 42.0422 68.4915 41.429C69.4196 40.8153 69.9785 39.7775 69.9785 38.6651V26.2807C70.1122 24.8026 69.6177 23.3366 68.6173 22.2416C67.6163 21.1461 66.2009 20.5221 64.7175 20.5215ZM61.3018 65.3077C60.5616 65.3071 59.9617 64.7072 59.9611 63.9676V41.5296H57.8025V63.9676C57.8043 64.697 57.2219 65.2939 56.4925 65.3101C55.7631 65.3264 55.1548 64.756 55.1235 64.0272L54.4802 38.7115H63.2846L62.6413 64.0152C62.6178 64.7374 62.0246 65.3101 61.3018 65.3077ZM67.8259 26.1198C67.8223 26.156 67.8205 26.1927 67.8205 26.2289V38.6651C67.8205 39.3029 67.3037 39.8197 66.6659 39.8197C66.0281 39.8197 65.5113 39.3029 65.5113 38.6651V36.0288L65.5239 35.5277H65.5113V30.3407H63.3527V36.0029L63.3388 36.5522H54.4254L54.3983 35.4729H54.385V30.3407H52.2264V38.6049C52.2409 39.2529 51.7343 39.7926 51.0869 39.8197C50.7791 39.8233 50.4828 39.7035 50.2641 39.4872C50.0449 39.2704 49.9214 38.9753 49.9214 38.6675V26.2295C49.9214 26.1927 49.9196 26.1566 49.916 26.1204C49.8269 25.2411 50.1142 24.3653 50.7068 23.71C51.2989 23.0547 52.1415 22.6807 53.0251 22.6807H54.847L58.1181 25.8621C58.1223 25.8663 58.1283 25.8699 58.1331 25.8741C58.1657 25.9054 58.2 25.9337 58.2361 25.9602C58.2385 25.962 58.241 25.9644 58.2434 25.9663C58.2831 25.994 58.3241 26.0193 58.3668 26.0415C58.3753 26.0458 58.3837 26.05 58.3921 26.0542C58.4313 26.0741 58.4722 26.0909 58.5138 26.106L58.524 26.1096C58.568 26.1247 58.6132 26.1367 58.6589 26.1457C58.6692 26.1475 58.68 26.1494 58.6909 26.1512C58.7312 26.1578 58.7722 26.1626 58.8131 26.165C58.8192 26.165 58.8252 26.1662 58.8318 26.1668C58.8776 26.168 58.9234 26.1668 58.9685 26.162C58.98 26.1614 58.9908 26.1602 59.0017 26.1584C59.0468 26.1536 59.0914 26.1451 59.1354 26.1343C59.1372 26.1343 59.139 26.1343 59.1402 26.1337C59.1884 26.121 59.2347 26.1054 59.2805 26.0861C59.2841 26.0849 59.2883 26.0843 59.292 26.0825C59.2956 26.0813 59.2992 26.0783 59.3028 26.0765C59.3913 26.0379 59.4745 25.9879 59.5497 25.9271C59.5594 25.9187 59.569 25.9114 59.5787 25.9024C59.5883 25.8934 59.6003 25.8849 59.6106 25.8753L63.0154 22.6807H64.7187C65.6022 22.6807 66.4442 23.0547 67.0363 23.71C67.629 24.3653 67.9157 25.2411 67.8265 26.1198H67.8259Z" fill="white"/>
<path d="M34.8212 18.8975H34.8965C37.705 18.8945 39.9817 16.6184 39.9847 13.8093V12.1151C39.9817 9.30655 37.705 7.03047 34.8965 7.02686H34.8212C32.0127 7.03047 29.7366 9.30655 29.733 12.1151V13.8087C29.736 16.6178 32.0121 18.8945 34.8212 18.8975ZM31.8917 12.1157C31.8935 10.4985 33.2041 9.1879 34.8212 9.18609H34.8965C36.5137 9.1879 37.8243 10.4985 37.8261 12.1157V13.8093C37.8243 15.4265 36.5137 16.7371 34.8965 16.7389H34.8212C33.2041 16.7371 31.8935 15.4265 31.8917 13.8093V12.1151V12.1157Z" fill="white"/>
<path d="M40.8472 20.5215H38.7163C38.4417 20.5221 38.1778 20.6269 37.9779 20.8148L35.0134 23.5962L32.1681 20.8268C31.967 20.6311 31.6965 20.5215 31.4158 20.5215H29.1548C27.6708 20.5215 26.2554 21.1455 25.2543 22.2404C24.2527 23.336 23.7588 24.802 23.8919 26.2801V38.6669C23.8925 40.4949 25.3742 41.9765 27.2022 41.9777H27.2407C27.684 41.9723 28.1219 41.8759 28.526 41.6947L29.0952 64.0935C29.1434 65.4721 29.998 66.693 31.2761 67.2104C32.5542 67.7284 34.0172 67.4465 35.0116 66.4912C36.0072 67.4483 37.4732 67.729 38.7524 67.2086C40.0311 66.6876 40.884 65.4625 40.9285 64.082L41.4959 41.7127C42.5198 42.1488 43.6937 42.0422 44.6218 41.429C45.55 40.8159 46.1083 39.7775 46.1083 38.6651V26.2807C46.242 24.8026 45.7481 23.3366 44.7471 22.241C43.7461 21.1461 42.3307 20.5221 40.8472 20.5215ZM37.431 65.3077C36.6914 65.3071 36.0915 64.7072 36.0909 63.9676V41.5296H33.9322V63.9676C33.9316 64.6958 33.3498 65.2903 32.6216 65.3065C31.8935 65.3228 31.2858 64.7548 31.2526 64.0272L30.61 38.7115H39.4138L38.7705 64.0152C38.7476 64.7373 38.1538 65.3101 37.431 65.3077ZM43.9557 26.1198C43.9515 26.156 43.9497 26.1927 43.9497 26.2289V38.6651C43.9497 39.3029 43.4329 39.8197 42.7951 39.8197C42.1572 39.8197 41.6405 39.3029 41.6405 38.6651V36.0288L41.6531 35.5277H41.6405V30.3407H39.4818V36.0029L39.468 36.5522H30.5552L30.5275 35.4729H30.5148V30.3407H28.3562V38.6049C28.3706 39.2529 27.8635 39.7926 27.2166 39.8197C26.9089 39.8233 26.6119 39.7035 26.3933 39.4872C26.1741 39.2704 26.0512 38.9753 26.0506 38.6675V26.2295C26.0506 26.1927 26.0488 26.1566 26.0452 26.1204C25.956 25.2411 26.2439 24.3653 26.836 23.71C27.4286 23.0541 28.2713 22.6801 29.1548 22.6807H30.9774L34.2479 25.8621C34.2527 25.8663 34.2581 25.8699 34.2635 25.8741C34.2954 25.9048 34.3298 25.9337 34.3659 25.9602C34.3683 25.962 34.3707 25.9644 34.3737 25.9663C34.4129 25.994 34.4538 26.0193 34.496 26.0409C34.5044 26.0458 34.5129 26.05 34.5219 26.0542C34.561 26.0741 34.6014 26.0909 34.6424 26.1054C34.646 26.1072 34.6496 26.109 34.6538 26.1102C34.6978 26.1247 34.7423 26.1367 34.7881 26.1457C34.799 26.1475 34.8092 26.1494 34.82 26.1512C34.8604 26.1584 34.9013 26.1626 34.9423 26.165C34.9483 26.165 34.9549 26.1662 34.961 26.1668C35.0067 26.168 35.0525 26.1668 35.0983 26.162C35.1091 26.1614 35.12 26.1602 35.1308 26.1584C35.1766 26.1536 35.2212 26.1451 35.2651 26.1343L35.27 26.1337C35.3175 26.121 35.3645 26.1054 35.4103 26.0861C35.4139 26.0849 35.4175 26.0843 35.4211 26.0825C35.4247 26.0813 35.429 26.0783 35.4326 26.0765C35.5211 26.0379 35.6042 25.9879 35.6795 25.9271C35.6891 25.9187 35.6988 25.9114 35.7084 25.9024C35.7181 25.8934 35.7301 25.8849 35.7397 25.8753L39.1445 22.6807H40.8478C41.7314 22.6807 42.5734 23.0547 43.1661 23.71C43.7581 24.3653 44.0454 25.2411 43.9557 26.1198Z" fill="white"/>
<path d="M28.1905 9.40174V7.70808C28.1875 4.89897 25.9114 2.62288 23.1023 2.61987H23.0276C20.2185 2.62288 17.9424 4.89897 17.9394 7.70808V9.40174C17.9424 12.2103 20.2185 14.4863 23.0276 14.49H23.1023C25.9114 14.4869 28.1875 12.2103 28.1905 9.40174ZM26.0319 9.40174C26.0301 11.0189 24.7201 12.3295 23.1023 12.3313H23.0276C21.4105 12.3295 20.0999 11.0189 20.0981 9.40174V7.70808C20.0999 6.09091 21.4105 4.78031 23.0276 4.77851H23.1023C24.7201 4.78031 26.0301 6.09091 26.0319 7.70808V9.40174Z" fill="white"/>
<path d="M52.0614 9.40174V7.70808C52.0584 4.89897 49.7823 2.62288 46.9732 2.61987H46.8979C44.0894 2.62288 41.8133 4.89897 41.8097 7.70808V9.40174C41.8133 12.2103 44.0894 14.4863 46.8979 14.49H46.9732C49.7823 14.4869 52.0584 12.2103 52.0614 9.40174ZM49.9028 9.40174C49.901 11.0189 48.5904 12.3295 46.9732 12.3313H46.8979C45.2807 12.3295 43.9701 11.0189 43.9683 9.40174V7.70808C43.9701 6.09091 45.2807 4.78031 46.8979 4.77851H46.9732C48.5904 4.78031 49.901 6.09091 49.9028 7.70808V9.40174Z" fill="white"/>
</g>
<defs>
<clipPath id="clip0">
<rect width="70" height="70" fill="white"/>
</clipPath>
</defs>
</svg>
