<svg width="60" height="70" viewBox="0 0 60 70" fill="none" xmlns="http://www.w3.org/2000/svg">
<path d="M1.9218 70H58.0782C58.8297 70 59.4413 69.3885 59.4413 68.6369V64.4187C59.4413 63.6672 58.8297 63.0558 58.0782 63.0558H56.1246V30.5964C57.3953 29.7645 58.2364 28.3283 58.2364 26.6994V21.859C58.2364 21.2736 58.0366 20.6928 57.6478 20.2213L52.0459 13.4347C52.1963 13.1802 52.2827 12.8838 52.2827 12.5675V1.70939C52.2828 0.766855 51.5161 0 50.5734 0H9.42643C8.48389 0 7.71717 0.766855 7.71717 1.70939V12.5675C7.71717 12.8838 7.80358 13.1802 7.95397 13.4347L2.35206 20.2213C1.97704 20.6757 1.76348 21.2527 1.76348 21.859V26.6994C1.76348 28.3283 2.60457 29.7644 3.87524 30.5963V63.0558H1.9218C1.17012 63.0558 0.558716 63.6672 0.558716 64.4187V68.6369C0.558716 69.3885 1.17012 70 1.9218 70ZM56.1856 26.6994C56.1856 28.1351 55.0175 29.3032 53.5818 29.3032H49.9559C48.5202 29.3032 47.3521 28.1351 47.3521 26.6994V22.3282H56.1856V26.6994ZM9.91807 14.2769H16.0089L13.037 20.2774H4.96489L9.91807 14.2769ZM24.6784 14.2769L23.6878 20.2776H15.3254L18.2973 14.2769H24.6784ZM33.2431 14.2769L34.2338 20.2776H25.7664L26.757 14.2769H33.2431ZM50.0819 14.2769L55.0351 20.2774H46.9631L43.9913 14.2769H50.0819ZM41.7027 14.2769L44.6746 20.2776H36.312L35.3215 14.2769H41.7027ZM14.6987 22.3282H23.5324V26.6993C23.5324 28.1349 22.3644 29.3031 20.9286 29.3031H17.3027C15.8668 29.3031 14.6988 28.1349 14.6988 26.6993C14.6988 25.7522 14.6987 29.0429 14.6987 22.3282ZM25.5832 22.3282H34.4168V26.6993C34.4168 28.1349 33.2487 29.3031 31.813 29.3031H28.1871C26.7514 29.3031 25.5833 28.1349 25.5833 26.6993V22.3282H25.5832ZM36.4676 22.3282H45.3013V26.6993C45.3013 28.1349 44.1332 29.3031 42.6973 29.3031H39.0714C37.6356 29.3031 36.4675 28.1349 36.4675 26.6993V22.3282H36.4676ZM9.76795 2.05078H50.2322V12.2261C45.5524 12.2261 15.0178 12.2261 9.76795 12.2261V2.05078ZM3.8144 22.3282H12.6479V26.6994C12.6479 28.1352 11.4799 29.3032 10.0441 29.3032H6.41821C4.98252 29.3032 3.8144 28.1351 3.8144 26.6994V22.3282ZM6.41821 31.354H10.0441C11.5099 31.354 12.8195 30.673 13.6733 29.6107C14.5271 30.673 15.8368 31.354 17.3025 31.354H20.9284C22.3942 31.354 23.7038 30.673 24.5576 29.6107C25.4114 30.673 26.7211 31.354 28.1868 31.354H31.8128C33.2785 31.354 34.5881 30.673 35.442 29.6107C36.2958 30.673 37.6054 31.354 39.0713 31.354H42.6972C44.163 31.354 45.4727 30.673 46.3265 29.6107C47.1804 30.673 48.49 31.354 49.9557 31.354H53.5817C53.7478 31.354 53.912 31.3451 54.0737 31.3281V56.6084H37.4993V37.7494C37.4993 37.0539 36.9334 36.4882 36.2379 36.4882H23.7621C23.0666 36.4882 22.5008 37.0539 22.5008 37.7494V40.8082C22.5008 41.3745 22.9599 41.8336 23.5262 41.8336C24.0925 41.8336 24.5516 41.3745 24.5516 40.8082V38.539H35.4485V63.0558H24.5516V45.5932C24.5516 45.027 24.0925 44.5679 23.5262 44.5679C22.9599 44.5679 22.5008 45.027 22.5008 45.5932V56.6083H5.92616V31.3281C6.08789 31.3451 6.25196 31.354 6.41821 31.354ZM5.92616 58.659H22.5008V63.0558H5.92616V58.659ZM2.6095 65.1066H45.8698C46.4362 65.1066 46.8952 64.6475 46.8952 64.0812C46.8952 63.5149 46.4362 63.0558 45.8698 63.0558H37.4992V58.659H54.0737V63.0558H50.6548C50.0884 63.0558 49.6294 63.5149 49.6294 64.0812C49.6294 64.6475 50.0884 65.1066 50.6548 65.1066H57.3904V67.9492H2.6095V65.1066Z" fill="white"/>
<path d="M37.554 10.8589C38.1204 10.8589 38.5794 10.3998 38.5794 9.8335C38.5794 9.26721 38.1204 8.80811 37.554 8.80811H13.1859V5.46875H46.8142V8.80811H42.3393C41.7728 8.80811 41.3139 9.26721 41.3139 9.8335C41.3139 10.3998 41.7728 10.8589 42.3393 10.8589H47.6515C48.3207 10.8589 48.865 10.3145 48.865 9.64537V4.63148C48.865 3.96225 48.3207 3.41797 47.6515 3.41797H12.3486C11.6794 3.41797 11.1351 3.96238 11.1351 4.63148V9.64523C11.1351 10.3145 11.6795 10.8587 12.3486 10.8587H37.554V10.8589Z" fill="white"/>
<path d="M40.1277 52.6015H51.4454C52.1409 52.6015 52.7066 52.0358 52.7066 51.3403V37.7495C52.7066 37.054 52.1409 36.4883 51.4454 36.4883H40.1277C39.4322 36.4883 38.8663 37.054 38.8663 37.7495V51.3403C38.8665 52.0358 39.4322 52.6015 40.1277 52.6015ZM40.9172 38.5391H50.6559V50.5508H40.9172V38.5391Z" fill="white"/>
<path d="M8.55458 52.6015H19.8723C20.5678 52.6015 21.1337 52.0358 21.1337 51.3403V37.7495C21.1337 37.054 20.5678 36.4883 19.8723 36.4883H8.55458C7.85909 36.4883 7.29321 37.054 7.29321 37.7495V51.3403C7.29335 52.0358 7.85909 52.6015 8.55458 52.6015ZM9.34413 38.5391H19.0829V50.5508H9.34413V38.5391Z" fill="white"/>
<path d="M33.0559 55.8466C33.6224 55.8466 34.0813 55.3875 34.0813 54.8212V48.0603C34.0813 47.494 33.6224 47.0349 33.0559 47.0349C32.4895 47.0349 32.0305 47.494 32.0305 48.0603V54.8212C32.0305 55.3875 32.4895 55.8466 33.0559 55.8466Z" fill="white"/>
</svg>
