<svg width="70" height="70" viewBox="0 0 70 70" fill="none" xmlns="http://www.w3.org/2000/svg">
<g clip-path="url(#clip0)">
<path d="M18.3347 61.7084C17.2833 61.7084 16.232 61.3754 15.3142 60.7089C13.4764 59.3742 12.7434 57.1166 13.4473 54.957L18.6963 38.849L4.96428 28.9347C3.12199 27.6046 2.3833 25.3482 3.08221 23.1861C3.78111 21.0241 5.70092 19.6271 7.97318 19.6271H24.8996L30.0638 3.56672C30.7596 1.40287 32.678 0.00287109 34.9511 0H34.9578C37.2279 0 39.1466 1.39467 39.847 3.55496L45.0576 19.6271H46.8928C47.6479 19.6271 48.26 20.2393 48.26 20.9943C48.26 21.7492 47.6479 22.3614 46.8928 22.3614H44.0635C43.471 22.3614 42.9457 21.9796 42.7629 21.4159L37.2458 4.39824C36.848 3.17133 35.8034 2.73438 34.9572 2.73438C34.9563 2.73438 34.9553 2.73438 34.9544 2.73438C34.1077 2.73547 33.0622 3.17447 32.6669 4.40371L27.1978 21.4128C27.0159 21.9781 26.4901 22.3614 25.8962 22.3614H7.97318C6.68242 22.3614 5.94428 23.222 5.68396 24.0272C5.42365 24.8326 5.5184 25.9622 6.56484 26.718L21.1054 37.2159C21.5872 37.5638 21.7892 38.1829 21.605 38.748L16.047 55.8044C15.6472 57.0311 16.2362 57.9994 16.9209 58.4963C17.6054 58.9935 18.7086 59.2538 19.7512 58.4942L34.2501 47.9305C34.7293 47.5811 35.3793 47.5806 35.859 47.9295L50.3068 58.4305C51.3509 59.1892 52.4538 58.9271 53.1379 58.4288C53.8219 57.9303 54.4096 56.9609 54.0072 55.7344L48.4396 38.7635C48.2545 38.1988 48.4551 37.5792 48.9362 37.2304L63.439 26.7148C64.4829 25.958 64.5761 24.8289 64.3153 24.0248C64.0544 23.2206 63.3162 22.3613 62.0269 22.3613H59.1976C58.4425 22.3613 57.8304 21.7491 57.8304 20.9941C57.8304 20.2392 58.4425 19.6269 59.1976 19.6269H62.0269C64.2967 19.6269 66.2159 21.022 66.9162 23.1811C67.6166 25.3401 66.8817 27.5961 65.0441 28.9285L51.3487 38.8586L56.6054 54.8819C57.3138 57.041 56.5848 59.3007 54.7482 60.6387C52.9118 61.9767 50.5374 61.9782 48.6992 60.642L35.0562 50.7261L21.3615 60.7038C20.4425 61.3736 19.3887 61.7084 18.3347 61.7084Z" fill="white"/>
<path d="M35 70C34.2449 70 33.6328 69.3878 33.6328 68.6328V57.5754C33.6328 56.8205 34.2449 56.2083 35 56.2083C35.7551 56.2083 36.3672 56.8205 36.3672 57.5754V68.6328C36.3672 69.3878 35.7551 70 35 70Z" fill="white"/>
<path d="M68.3502 45.77C68.2102 45.77 68.0679 45.7483 67.9275 45.7027L57.4113 42.2859C56.6933 42.0525 56.3002 41.2811 56.5336 40.5631C56.7669 39.845 57.5382 39.4525 58.2564 39.6852L68.7725 43.1021C69.4906 43.3354 69.8836 44.1068 69.6503 44.8249C69.4624 45.4026 68.9265 45.77 68.3502 45.77Z" fill="white"/>
<path d="M49.1109 15.5101C48.8322 15.5101 48.5511 15.4252 48.3083 15.2489C47.6975 14.8051 47.5621 13.95 48.0059 13.3392L54.5052 4.39352C54.9492 3.78266 55.8039 3.64717 56.4149 4.0911C57.0258 4.53489 57.1611 5.38993 56.7173 6.00078L50.218 14.9464C49.9506 15.3147 49.5336 15.5101 49.1109 15.5101Z" fill="white"/>
<path d="M20.8891 15.5103C20.4663 15.5103 20.0494 15.3148 19.7818 14.9466L13.2825 6.00109C12.8387 5.39023 12.9742 4.53519 13.5849 4.0914C14.1959 3.64734 15.0508 3.78296 15.4946 4.39382L21.994 13.3395C22.4377 13.9503 22.3023 14.8054 21.6915 15.2492C21.449 15.4254 21.1678 15.5103 20.8891 15.5103Z" fill="white"/>
<path d="M1.64981 45.7702C1.0734 45.7702 0.537602 45.4029 0.34975 44.8251C0.116508 44.107 0.509437 43.3357 1.22748 43.1023L11.7436 39.6854C12.4619 39.4522 13.233 39.8451 13.4664 40.5633C13.6998 41.2813 13.3067 42.0527 12.5887 42.2861L2.07268 45.703C1.93227 45.7485 1.78981 45.7702 1.64981 45.7702Z" fill="white"/>
<path d="M53.0455 22.3616C52.6859 22.3616 52.3332 22.2154 52.0789 21.961C51.8246 21.7067 51.6783 21.354 51.6783 20.9944C51.6783 20.6348 51.8246 20.2821 52.0789 20.0279C52.3332 19.7736 52.6846 19.6272 53.0455 19.6272C53.4051 19.6272 53.7578 19.7735 54.0121 20.0279C54.2664 20.2821 54.4127 20.6348 54.4127 20.9944C54.4127 21.354 54.2664 21.7067 54.0121 21.961C53.7578 22.2153 53.4051 22.3616 53.0455 22.3616Z" fill="white"/>
</g>
<defs>
<clipPath id="clip0">
<rect width="70" height="70" fill="white"/>
</clipPath>
</defs>
</svg>
