<svg width="56" height="55" viewBox="0 0 56 55" fill="none" xmlns="http://www.w3.org/2000/svg">
<path d="M14.5964 43.9C13.9594 43.4839 13.2323 43.2197 12.4731 43.1282C13.9295 42.0021 14.8252 40.3173 14.9333 38.4999C14.9333 32.4388 11.3801 31.1665 8.4 31.1665C5.41987 31.1665 1.86667 32.4388 1.86667 38.4999C1.97506 40.3174 2.87106 42.0023 4.32787 43.1282C1.85384 43.4276 -0.00361139 45.4933 5.27242e-06 47.9416V54.0833C5.27242e-06 54.5896 0.417905 55 0.933339 55H15.8667C16.3821 55 16.8 54.5896 16.8 54.0833V47.9416C16.8011 46.3169 15.9738 44.7997 14.5964 43.9ZM3.78187 37.53C4.03481 34.4573 5.50667 32.9998 8.4 32.9998C11.0488 32.9998 12.5067 34.23 12.9239 36.7967L9.814 34.9633C9.37195 34.7029 8.79865 34.8437 8.53347 35.2779C8.49847 35.3352 8.47001 35.3959 8.44854 35.4593C7.97627 36.8508 5.4264 37.3769 3.78187 37.53ZM3.86307 39.3689C5.46094 39.2396 8.34307 38.7648 9.68707 37.0268L13.0228 38.993C12.6485 41.238 9.83267 43.0832 8.4 43.0832C6.31832 42.735 4.58664 41.3173 3.86307 39.3689ZM9.17094 48.3615L8.4 49.1205L7.62907 48.3624L8.4 46.4676L9.17094 48.3615ZM14.9333 53.1667H1.86667V47.9416C1.86667 46.271 3.24567 44.9166 4.94667 44.9166H7.01867L5.66627 48.2432C5.52802 48.5836 5.60946 48.9723 5.87347 49.2314L7.74014 51.0647C8.1046 51.4226 8.69541 51.4226 9.05987 51.0647L10.9265 49.2314C11.1906 48.9723 11.272 48.5836 11.1337 48.2432L9.77854 44.9166H11.8533C13.5543 44.9166 14.9333 46.271 14.9333 47.9416V53.1667Z" fill="white"/>
<path d="M34.1964 43.9C33.5594 43.4839 32.8323 43.2197 32.0731 43.1282C33.5295 42.0021 34.4252 40.3173 34.5333 38.4999C34.5333 32.4388 30.9801 31.1665 28 31.1665C25.0199 31.1665 21.4667 32.4388 21.4667 38.4999C21.575 40.3174 22.471 42.0023 23.9279 43.1282C21.4538 43.4276 19.5964 45.4933 19.6 47.9416V54.0833C19.6 54.5896 20.0179 55 20.5333 55H35.4667C35.9821 55 36.4 54.5896 36.4 54.0833V47.9416C36.4011 46.3169 35.5738 44.7997 34.1964 43.9ZM23.3819 37.53C23.6348 34.4573 25.1067 32.9998 28 32.9998C30.6488 32.9998 32.1067 34.23 32.5239 36.7967L29.414 34.9633C28.9719 34.7029 28.3986 34.8437 28.1335 35.2779C28.0985 35.3352 28.07 35.3959 28.0485 35.4593C27.5763 36.8508 25.0264 37.3769 23.3819 37.53ZM23.4631 39.3689C25.0609 39.2396 27.9431 38.7648 29.2871 37.0268L32.6228 38.993C32.2485 41.238 29.4327 43.0832 28 43.0832C25.9183 42.735 24.1866 41.3173 23.4631 39.3689ZM28.7709 48.3615L28 49.1205L27.2291 48.3624L28 46.4676L28.7709 48.3615ZM34.5333 53.1667H21.4667V47.9416C21.4667 46.271 22.8457 44.9166 24.5467 44.9166H26.6187L25.2635 48.2432C25.1252 48.5836 25.2066 48.9723 25.4707 49.2314L27.3373 51.0647C27.7018 51.4226 28.2926 51.4226 28.6571 51.0647L30.5237 49.2314C30.7877 48.9723 30.8692 48.5836 30.7309 48.2432L29.3785 44.9166H31.4533C33.1543 44.9166 34.5333 46.271 34.5333 47.9416V53.1667Z" fill="white"/>
<path d="M53.7964 43.9C53.1594 43.4839 52.4323 43.2197 51.6731 43.1282C53.1295 42.0021 54.0252 40.3173 54.1333 38.4999C54.1333 32.4388 50.5801 31.1665 47.6 31.1665C44.6199 31.1665 41.0667 32.4388 41.0667 38.4999C41.175 40.3174 42.071 42.0023 43.5279 43.1282C41.0538 43.4276 39.1964 45.4933 39.2 47.9416V54.0833C39.2 54.5896 39.6179 55 40.1333 55H55.0667C55.5821 55 56 54.5896 56 54.0833V47.9416C56.001 46.3169 55.1738 44.7997 53.7964 43.9ZM42.9819 37.53C43.2348 34.4573 44.7067 32.9998 47.6 32.9998C50.2488 32.9998 51.7067 34.23 52.1239 36.7967L49.014 34.9633C48.5719 34.7029 47.9986 34.8437 47.7335 35.2779C47.6985 35.3352 47.67 35.3959 47.6485 35.4593C47.1763 36.8508 44.6264 37.3769 42.9819 37.53ZM43.0631 39.3689C44.6609 39.2396 47.5431 38.7648 48.8871 37.0268L52.2228 38.993C51.8485 41.238 49.0327 43.0832 47.6 43.0832C45.5183 42.735 43.7866 41.3173 43.0631 39.3689ZM48.3709 48.3615L47.6 49.1205L46.8291 48.3624L47.6 46.4676L48.3709 48.3615ZM54.1333 53.1667H41.0667V47.9416C41.0667 46.271 42.4457 44.9166 44.1467 44.9166H46.2187L44.8635 48.2432C44.7252 48.5836 44.8066 48.9723 45.0707 49.2314L46.9373 51.0647C47.3018 51.4226 47.8926 51.4226 48.2571 51.0647L50.1237 49.2314C50.3877 48.9723 50.4692 48.5836 50.3309 48.2432L48.9785 44.9166H51.0533C52.7543 44.9166 54.1333 46.271 54.1333 47.9416V53.1667Z" fill="white"/>
<path d="M42.9334 27.4998V15.583C42.9334 15.0768 42.5155 14.6663 42.0001 14.6663H33.6001V11.9163C33.6001 11.4101 33.1822 10.9996 32.6667 10.9996H26.9967C25.6261 8.65799 23.0535 7.24838 20.3047 7.33294C16.2101 7.55821 13.0209 10.9082 13.0667 14.9358C13.0652 17.3293 13.7602 19.6732 15.0697 21.6917L18.8329 27.4998H17.7334V29.3331H43.8667V27.4998H42.9334ZM23.3334 27.4998H22.2339L23.3334 25.803V27.4998ZM20.5334 26.7096L16.6451 20.7072C15.5261 18.9831 14.9321 16.9806 14.9334 14.9358C14.8806 11.8966 17.2719 9.35455 20.3607 9.16629H20.5334C23.6262 9.16629 26.1334 11.6287 26.1334 14.6663V14.9358C26.1354 16.9819 25.5414 18.9856 24.4217 20.7109L20.5334 26.7096ZM31.7334 27.4998H25.2001V22.921L25.9971 21.6917C27.3066 19.6732 28.0016 17.3293 28.0001 14.9358V14.6663C27.9979 14.0477 27.9163 13.4317 27.7574 12.833H31.7334V27.4998ZM38.2667 27.4998H36.4001V24.7497H38.2667V27.4998ZM41.0667 17.4164H39.2001V19.2497H41.0667V20.1664H39.2001V21.9997H41.0667V27.4998H40.1334V23.8331C40.1334 23.3268 39.7155 22.9164 39.2001 22.9164H35.4667C34.9513 22.9164 34.5334 23.3268 34.5334 23.8331V27.4998H33.6001V21.9997H35.4667V20.1664H33.6001V19.2497H35.4667V17.4164H33.6001V16.4997H41.0667V17.4164Z" fill="white"/>
<path d="M30.8 13.7497H28.9333V15.583H30.8V13.7497Z" fill="white"/>
<path d="M38.2667 17.4164H36.4V19.2497H38.2667V17.4164Z" fill="white"/>
<path d="M38.2667 20.1664H36.4V21.9997H38.2667V20.1664Z" fill="white"/>
<path d="M30.8 16.4997H28.9333V18.333H30.8V16.4997Z" fill="white"/>
<path d="M30.8 19.2497H28.9333V21.0831H30.8V19.2497Z" fill="white"/>
<path d="M28 21.9997H26.1334V23.8331H28V21.9997Z" fill="white"/>
<path d="M30.8 21.9997H28.9333V23.8331H30.8V21.9997Z" fill="white"/>
<path d="M28 24.7498H26.1334V26.5831H28V24.7498Z" fill="white"/>
<path d="M30.8 24.7498H28.9333V26.5831H30.8V24.7498Z" fill="white"/>
<path d="M51.7935 19.126L49.9633 19.488C50.0781 20.0481 50.1714 20.6211 50.2433 21.1903L52.0941 20.974C52.0185 20.3561 51.9177 19.7346 51.7935 19.126Z" fill="white"/>
<path d="M4.20004 19.17C4.07404 19.7823 3.9751 20.4029 3.90137 21.0152L5.75497 21.2297C5.82217 20.6651 5.9155 20.0912 6.02937 19.5247L4.20004 19.17Z" fill="white"/>
<path d="M49.1531 12.1446L47.5272 13.0447C47.8138 13.5425 48.0872 14.0586 48.3299 14.5802L50.022 13.8065C49.7551 13.2427 49.462 12.6836 49.1531 12.1446Z" fill="white"/>
<path d="M47.0325 9.04437L45.5672 10.1829C45.9284 10.6293 46.2774 11.0996 46.605 11.5771L48.1525 10.5532C47.7978 10.0362 47.4208 9.52838 47.0325 9.04437Z" fill="white"/>
<path d="M8.94786 9.07462C8.55493 9.56046 8.17787 10.0692 7.826 10.5844L9.3772 11.6046C9.70106 11.1289 10.0492 10.6596 10.4113 10.2095L8.94786 9.07462Z" fill="white"/>
<path d="M44.4454 6.30718L43.1798 7.65469C43.6119 8.04703 44.031 8.45678 44.4239 8.87295L45.7931 7.62719C45.3675 7.17619 44.9139 6.7316 44.4454 6.30718Z" fill="white"/>
<path d="M6.82921 12.1748C6.52121 12.7129 6.22908 13.2739 5.96214 13.8413L7.65521 14.6113C7.90254 14.087 8.17227 13.5691 8.45507 13.075L6.82921 12.1748Z" fill="white"/>
<path d="M5.23233 15.5711C5.01113 16.1578 4.81326 16.7564 4.64339 17.3504L6.43913 17.8481C6.59686 17.2981 6.77979 16.7481 6.98419 16.2054L5.23233 15.5711Z" fill="white"/>
<path d="M11.5295 6.32918C11.0628 6.74993 10.6129 7.19452 10.1836 7.65103L11.5547 8.89495C11.9467 8.47511 12.3685 8.06628 12.796 7.67578L11.5295 6.32918Z" fill="white"/>
<path d="M50.7557 15.5335L49.0057 16.1706C49.2101 16.7105 49.3939 17.2624 49.5526 17.8114L51.3483 17.31C51.1757 16.7151 50.975 16.1184 50.7557 15.5335Z" fill="white"/>
<path d="M21.3985 0.893304C20.7863 1.06381 20.1768 1.25997 19.5897 1.47172L20.2365 3.19049C20.7788 2.99432 21.3416 2.81465 21.9072 2.65698L21.3985 0.893304Z" fill="white"/>
<path d="M25.1318 0.165466C24.5084 0.237883 23.8756 0.335967 23.2521 0.456052L23.6133 2.25548C24.1901 2.14365 24.7744 2.05198 25.3502 1.98598L25.1318 0.165466Z" fill="white"/>
<path d="M27.0293 0.0178818L27.1002 1.85123C27.6826 1.83106 28.2762 1.82923 28.8586 1.85123L28.9333 0.0178818C28.3014 -0.00686845 27.6612 -0.0050351 27.0293 0.0178818Z" fill="white"/>
<path d="M17.8313 2.18673C17.2592 2.44615 16.688 2.73674 16.1364 3.03741L17.0511 4.63609C17.5607 4.35467 18.0861 4.08608 18.6153 3.8505L17.8313 2.18673Z" fill="white"/>
<path d="M30.8271 0.159967L30.6134 1.98048C31.1874 2.04557 31.7716 2.1354 32.3503 2.24632L32.7078 0.446886C32.0815 0.326801 31.4534 0.230551 30.8271 0.159967Z" fill="white"/>
<path d="M41.4539 3.99441L40.4189 5.51976C40.9005 5.8351 41.3783 6.1761 41.8413 6.5336L42.9949 5.09259C42.4937 4.70575 41.9757 4.33542 41.4539 3.99441Z" fill="white"/>
<path d="M34.5594 0.881388L34.0582 2.6469C34.6182 2.8009 35.1782 2.97874 35.7289 3.17674L36.372 1.45614C35.7784 1.24072 35.1689 1.04822 34.5594 0.881388Z" fill="white"/>
<path d="M14.5143 4.01641C13.986 4.36567 13.468 4.73509 12.9771 5.11642L14.1326 6.5556C14.5862 6.2036 15.0659 5.86168 15.555 5.53809L14.5143 4.01641Z" fill="white"/>
<path d="M38.1322 2.17023L37.352 3.83491C37.8793 4.07416 38.4076 4.33817 38.92 4.61775L39.83 3.01724C39.2756 2.71474 38.7053 2.42873 38.1322 2.17023Z" fill="white"/>
<path d="M20.5334 10.9996C18.4715 10.9996 16.8 12.6413 16.8 14.6663C16.8 16.6914 18.4715 18.333 20.5334 18.333C22.5952 18.333 24.2667 16.6914 24.2667 14.6663C24.2667 12.6413 22.5952 10.9996 20.5334 10.9996ZM20.5334 16.4997C19.5024 16.4997 18.6667 15.6789 18.6667 14.6663C18.6667 13.6538 19.5024 12.833 20.5334 12.833C21.5643 12.833 22.4 13.6538 22.4 14.6663C22.4 15.6789 21.5643 16.4997 20.5334 16.4997Z" fill="white"/>
</svg>
