<svg width="56" height="56" viewBox="0 0 56 56" fill="none" xmlns="http://www.w3.org/2000/svg">
<path d="M32.2614 48.1995H30.4179V39.2871C30.4179 39.0459 30.3208 38.8146 30.148 38.6441C29.9751 38.4735 29.7406 38.3777 29.4962 38.3777C29.2517 38.3777 29.0173 38.4735 28.8444 38.6441C28.6715 38.8146 28.5744 39.0459 28.5744 39.2871V48.1995H4.60878V30.011H12.2778C12.5222 30.011 12.7567 29.9152 12.9296 29.7446C13.1024 29.5741 13.1995 29.3428 13.1995 29.1016C13.1995 28.8604 13.1024 28.6291 12.9296 28.4585C12.7567 28.288 12.5222 28.1921 12.2778 28.1921H3.68702C3.44256 28.1921 3.20811 28.288 3.03524 28.4585C2.86238 28.6291 2.76527 28.8604 2.76527 29.1016V48.1995H0.921755C0.677291 48.1995 0.442839 48.2953 0.269976 48.4659C0.0971132 48.6364 0 48.8677 0 49.1089V50.9278C0 52.1338 0.485566 53.2903 1.34988 54.1431C2.21419 54.9958 3.38645 55.4749 4.60878 55.4749H28.5744C29.7967 55.4749 30.969 54.9958 31.8333 54.1431C32.6976 53.2903 33.1832 52.1338 33.1832 50.9278V49.1089C33.1832 48.8677 33.0861 48.6364 32.9132 48.4659C32.7404 48.2953 32.5059 48.1995 32.2614 48.1995ZM31.3397 50.9278C31.3397 51.6514 31.0483 52.3453 30.5298 52.857C30.0112 53.3686 29.3078 53.6561 28.5744 53.6561H26.7309V52.7466C26.7309 52.5054 26.6338 52.2741 26.4609 52.1036C26.2881 51.933 26.0536 51.8372 25.8092 51.8372C25.5647 51.8372 25.3302 51.933 25.1574 52.1036C24.9845 52.2741 24.8874 52.5054 24.8874 52.7466V53.6561H8.2958V52.7466C8.2958 52.5054 8.19869 52.2741 8.02582 52.1036C7.85296 51.933 7.61851 51.8372 7.37404 51.8372C7.12958 51.8372 6.89513 51.933 6.72226 52.1036C6.5494 52.2741 6.45229 52.5054 6.45229 52.7466V53.6561H4.60878C3.87538 53.6561 3.17203 53.3686 2.65344 52.857C2.13485 52.3453 1.84351 51.6514 1.84351 50.9278V50.0184H31.3397V50.9278Z" fill="white"/>
<path d="M47.9313 6.36597H49.7748C50.0193 6.36597 50.2537 6.27016 50.4266 6.09961C50.5994 5.92906 50.6966 5.69774 50.6966 5.45654C50.6966 5.21535 50.5994 4.98403 50.4266 4.81348C50.2537 4.64293 50.0193 4.54712 49.7748 4.54712H47.9313C47.1979 4.54712 46.4945 4.83456 45.9759 5.34621C45.4574 5.85786 45.166 6.55181 45.166 7.2754V8.18482H44.2443C43.9998 8.18482 43.7653 8.28064 43.5925 8.45119C43.4196 8.62174 43.3225 8.85305 43.3225 9.09425C43.3225 9.33544 43.4196 9.56676 43.5925 9.73731C43.7653 9.90786 43.9998 10.0037 44.2443 10.0037H45.166V12.7319C45.166 12.9731 45.2631 13.2045 45.436 13.375C45.6089 13.5456 45.8433 13.6414 46.0878 13.6414C46.3322 13.6414 46.5667 13.5456 46.7396 13.375C46.9124 13.2045 47.0095 12.9731 47.0095 12.7319V10.0037H47.9313C48.1758 10.0037 48.4102 9.90786 48.5831 9.73731C48.7559 9.56676 48.853 9.33544 48.853 9.09425C48.853 8.85305 48.7559 8.62174 48.5831 8.45119C48.4102 8.28064 48.1758 8.18482 47.9313 8.18482H47.0095V7.2754C47.0095 7.0342 47.1066 6.80289 47.2795 6.63233C47.4524 6.46178 47.6868 6.36597 47.9313 6.36597Z" fill="white"/>
<path d="M52.5401 0.909424H41.479C40.7456 0.909424 40.0422 1.19687 39.5237 1.70852C39.0051 2.22017 38.7137 2.91412 38.7137 3.6377V5.45655C38.7137 5.69775 38.8108 5.92906 38.9837 6.09961C39.1566 6.27016 39.391 6.36598 39.6355 6.36598C39.88 6.36598 40.1144 6.27016 40.2873 6.09961C40.4601 5.92906 40.5572 5.69775 40.5572 5.45655V3.6377C40.5572 3.39651 40.6544 3.16519 40.8272 2.99464C41.0001 2.82409 41.2345 2.72828 41.479 2.72828H52.5401C52.7845 2.72828 53.019 2.82409 53.1918 2.99464C53.3647 3.16519 53.4618 3.39651 53.4618 3.6377V14.5508C53.4618 14.792 53.3647 15.0233 53.1918 15.1939C53.019 15.3644 52.7845 15.4602 52.5401 15.4602H41.479C41.2345 15.4602 41.0001 15.3644 40.8272 15.1939C40.6544 15.0233 40.5572 14.792 40.5572 14.5508V9.09425C40.5572 8.85306 40.4601 8.62174 40.2873 8.45119C40.1144 8.28064 39.88 8.18483 39.6355 8.18483C39.391 8.18483 39.1566 8.28064 38.9837 8.45119C38.8108 8.62174 38.7137 8.85306 38.7137 9.09425V14.5508C38.7137 15.2744 39.0051 15.9683 39.5237 16.48C40.0422 16.9916 40.7456 17.2791 41.479 17.2791H52.5401C53.2735 17.2791 53.9768 16.9916 54.4954 16.48C55.014 15.9683 55.3053 15.2744 55.3053 14.5508V3.6377C55.3053 2.91412 55.014 2.22017 54.4954 1.70852C53.9768 1.19687 53.2735 0.909424 52.5401 0.909424Z" fill="white"/>
<path d="M43.3225 37.2864C43.3225 38.0059 43.5388 38.7092 43.9439 39.3074C44.349 39.9056 44.9249 40.3719 45.5986 40.6472C46.2723 40.9225 47.0136 40.9945 47.7288 40.8542C48.4441 40.7138 49.101 40.3674 49.6167 39.8586C50.1323 39.3499 50.4835 38.7017 50.6257 37.9961C50.768 37.2904 50.695 36.559 50.4159 35.8943C50.1368 35.2296 49.6643 34.6615 49.0579 34.2617C48.4516 33.862 47.7388 33.6487 47.0095 33.6487C46.0317 33.6487 45.0939 34.0319 44.4024 34.7141C43.711 35.3963 43.3225 36.3216 43.3225 37.2864ZM48.8531 37.2864C48.8531 37.6461 48.7449 37.9978 48.5424 38.2969C48.3398 38.596 48.0519 38.8291 47.715 38.9668C47.3782 39.1044 47.0075 39.1405 46.6499 39.0703C46.2923 39.0001 45.9638 38.8269 45.706 38.5725C45.4482 38.3181 45.2726 37.994 45.2014 37.6412C45.1303 37.2884 45.1668 36.9227 45.3064 36.5903C45.4459 36.258 45.6822 35.9739 45.9853 35.7741C46.2885 35.5742 46.6449 35.4675 47.0095 35.4675C47.4985 35.4675 47.9674 35.6592 48.3131 36.0003C48.6588 36.3414 48.8531 36.804 48.8531 37.2864Z" fill="white"/>
<path d="M52.5401 29.1018H41.479C40.7456 29.1018 40.0422 29.3893 39.5237 29.9009C39.0051 30.4126 38.7137 31.1065 38.7137 31.8301V42.7432C38.7137 43.4668 39.0051 44.1607 39.5237 44.6724C40.0422 45.184 40.7456 45.4715 41.479 45.4715H52.5401C53.2735 45.4715 53.9768 45.184 54.4954 44.6724C55.014 44.1607 55.3053 43.4668 55.3053 42.7432V40.9243C55.3053 40.6831 55.2082 40.4518 55.0354 40.2813C54.8625 40.1107 54.628 40.0149 54.3836 40.0149C54.1391 40.0149 53.9047 40.1107 53.7318 40.2813C53.5589 40.4518 53.4618 40.6831 53.4618 40.9243V42.7432C53.4618 42.9844 53.3647 43.2157 53.1918 43.3863C53.019 43.5568 52.7845 43.6526 52.5401 43.6526H41.479C41.2345 43.6526 41.0001 43.5568 40.8272 43.3863C40.6544 43.2157 40.5572 42.9844 40.5572 42.7432V31.8301C40.5572 31.5889 40.6544 31.3576 40.8272 31.187C41.0001 31.0165 41.2345 30.9207 41.479 30.9207H52.5401C52.7845 30.9207 53.019 31.0165 53.1918 31.187C53.3647 31.3576 53.4618 31.5889 53.4618 31.8301V37.2866C53.4618 37.5278 53.5589 37.7591 53.7318 37.9297C53.9047 38.1002 54.1391 38.1961 54.3836 38.1961C54.628 38.1961 54.8625 38.1002 55.0354 37.9297C55.2082 37.7591 55.3053 37.5278 55.3053 37.2866V31.8301C55.3053 31.1065 55.014 30.4126 54.4954 29.9009C53.9768 29.3893 53.2735 29.1018 52.5401 29.1018Z" fill="white"/>
<path d="M20.7118 11.686C20.8585 11.7757 21.0278 11.823 21.2004 11.8225C21.3447 11.8216 21.4867 11.7873 21.6152 11.7224L27.1457 8.99414C27.2967 8.91783 27.4234 8.80188 27.5119 8.65907C27.6004 8.51626 27.6472 8.35213 27.6472 8.18476C27.6472 8.01738 27.6004 7.85325 27.5119 7.71044C27.4234 7.56763 27.2967 7.45168 27.1457 7.37537L21.6152 4.64709C21.4749 4.57733 21.3188 4.54411 21.1618 4.5506C21.0048 4.55709 20.8521 4.60306 20.7182 4.68416C20.5843 4.76526 20.4736 4.87878 20.3967 5.01395C20.3197 5.14912 20.2791 5.30145 20.2786 5.45648V10.913C20.2783 11.0676 20.3179 11.2197 20.3937 11.3549C20.4695 11.4902 20.579 11.6041 20.7118 11.686ZM22.1221 6.92975L24.6662 8.18476L22.1221 9.43976V6.92975Z" fill="white"/>
<path d="M23.0439 16.3697C24.6846 16.3697 26.2885 15.8896 27.6528 14.9903C29.017 14.0909 30.0803 12.8126 30.7082 11.317C31.3361 9.82145 31.5004 8.17575 31.1803 6.58805C30.8602 5.00035 30.0701 3.54195 28.9099 2.39728C27.7497 1.25262 26.2715 0.473086 24.6623 0.157273C23.0531 -0.158541 21.3851 0.00354632 19.8692 0.623037C18.3534 1.24253 17.0577 2.2916 16.1462 3.63759C15.2346 4.98357 14.7481 6.56603 14.7481 8.18483C14.7481 10.3556 15.6221 12.4374 17.1779 13.9724C18.7336 15.5073 20.8437 16.3697 23.0439 16.3697ZM23.0439 1.81885C24.32 1.81885 25.5675 2.19221 26.6286 2.89172C27.6897 3.59122 28.5167 4.58545 29.005 5.74868C29.4934 6.91191 29.6212 8.1919 29.3722 9.42677C29.1232 10.6617 28.5087 11.796 27.6063 12.6863C26.704 13.5766 25.5543 14.1829 24.3027 14.4285C23.051 14.6741 21.7537 14.5481 20.5747 14.0662C19.3957 13.5844 18.388 12.7685 17.679 11.7216C16.97 10.6747 16.5916 9.4439 16.5916 8.18483C16.5916 6.49647 17.2714 4.87726 18.4814 3.68341C19.6915 2.48955 21.3326 1.81885 23.0439 1.81885Z" fill="white"/>
<path d="M32.2614 20.0072C32.4045 20.0072 32.5457 19.9743 32.6737 19.9112C32.8017 19.8481 32.913 19.7564 32.9989 19.6434L35.7641 16.0057C35.9108 15.8128 35.9738 15.5702 35.9392 15.3315C35.9046 15.0927 35.7754 14.8773 35.5798 14.7325C35.3842 14.5878 35.1384 14.5257 34.8964 14.5598C34.6544 14.5939 34.436 14.7215 34.2893 14.9144L31.524 18.5521C31.3774 18.7451 31.3144 18.9876 31.349 19.2264C31.3835 19.4652 31.5128 19.6806 31.7084 19.8253C31.8679 19.9434 32.062 20.0072 32.2614 20.0072Z" fill="white"/>
<path d="M34.2893 23.2814C34.3752 23.3943 34.4865 23.486 34.6145 23.5491C34.7425 23.6123 34.8836 23.6452 35.0267 23.6452C35.2262 23.6452 35.4202 23.5813 35.5798 23.4633L39.2668 20.735C39.4624 20.5903 39.5917 20.3748 39.6262 20.1361C39.6608 19.8973 39.5978 19.6548 39.4512 19.4618C39.3045 19.2688 39.0861 19.1413 38.8441 19.1072C38.6021 19.0731 38.3563 19.1352 38.1607 19.2799L34.4737 22.0082C34.2781 22.1529 34.1488 22.3683 34.1142 22.6071C34.0796 22.8459 34.1426 23.0884 34.2893 23.2814Z" fill="white"/>
<path d="M43.3225 25.282C43.3006 25.1615 43.2542 25.0465 43.1862 24.944C43.1181 24.8416 43.0298 24.7538 42.9265 24.6858C42.8232 24.6179 42.7071 24.5712 42.585 24.5486C42.463 24.5261 42.3376 24.5281 42.2164 24.5545L37.6076 25.4639C37.4866 25.4759 37.3691 25.5112 37.2619 25.5679C37.1547 25.6247 37.0599 25.7017 36.9828 25.7946C36.8273 25.9822 36.7536 26.2231 36.778 26.4643C36.8025 26.7055 36.923 26.9272 37.1132 27.0807C37.3033 27.2342 37.5475 27.3069 37.792 27.2828H37.9763L42.5851 26.3733C42.7073 26.3517 42.8238 26.306 42.9277 26.2388C43.0315 26.1717 43.1205 26.0846 43.1894 25.9826C43.2583 25.8807 43.3055 25.7661 43.3284 25.6457C43.3513 25.5253 43.3493 25.4016 43.3225 25.282Z" fill="white"/>
<path d="M0.921756 25.464H11.9828C12.2273 25.464 12.4617 25.3682 12.6346 25.1977C12.8075 25.0271 12.9046 24.7958 12.9046 24.5546V10.0038C12.9046 9.76259 12.8075 9.53128 12.6346 9.36073C12.4617 9.19017 12.2273 9.09436 11.9828 9.09436H0.921756C0.677291 9.09436 0.442839 9.19017 0.269976 9.36073C0.0971132 9.53128 0 9.76259 0 10.0038V24.5546C0 24.7958 0.0971132 25.0271 0.269976 25.1977C0.442839 25.3682 0.677291 25.464 0.921756 25.464ZM1.84351 10.9132H11.0611V23.6452H1.84351V10.9132Z" fill="white"/>
<path d="M8.2958 12.7318H6.45229C6.20783 12.7318 5.97338 12.8276 5.80051 12.9982C5.62765 13.1687 5.53054 13.4 5.53054 13.6412C5.53054 13.8824 5.62765 14.1137 5.80051 14.2843C5.97338 14.4548 6.20783 14.5507 6.45229 14.5507H8.2958C8.54027 14.5507 8.77472 14.4548 8.94758 14.2843C9.12045 14.1137 9.21756 13.8824 9.21756 13.6412C9.21756 13.4 9.12045 13.1687 8.94758 12.9982C8.77472 12.8276 8.54027 12.7318 8.2958 12.7318Z" fill="white"/>
<path d="M8.2958 16.3695H4.60877C4.36431 16.3695 4.12986 16.4653 3.957 16.6359C3.78413 16.8064 3.68702 17.0377 3.68702 17.2789C3.68702 17.5201 3.78413 17.7514 3.957 17.922C4.12986 18.0925 4.36431 18.1884 4.60877 18.1884H8.2958C8.54026 18.1884 8.77471 18.0925 8.94758 17.922C9.12044 17.7514 9.21755 17.5201 9.21755 17.2789C9.21755 17.0377 9.12044 16.8064 8.94758 16.6359C8.77471 16.4653 8.54026 16.3695 8.2958 16.3695Z" fill="white"/>
<path d="M8.2958 20.0074H4.60877C4.36431 20.0074 4.12986 20.1033 3.957 20.2738C3.78413 20.4444 3.68702 20.6757 3.68702 20.9169C3.68702 21.1581 3.78413 21.3894 3.957 21.5599C4.12986 21.7305 4.36431 21.8263 4.60877 21.8263H8.2958C8.54026 21.8263 8.77471 21.7305 8.94758 21.5599C9.12044 21.3894 9.21755 21.1581 9.21755 20.9169C9.21755 20.6757 9.12044 20.4444 8.94758 20.2738C8.77471 20.1033 8.54026 20.0074 8.2958 20.0074Z" fill="white"/>
<path d="M31.4503 25.191C31.3898 25.0871 31.3091 24.996 31.2129 24.9229C31.1167 24.8497 31.0068 24.796 30.8896 24.7648C30.7723 24.7335 30.6499 24.7254 30.5295 24.7408C30.409 24.7562 30.2928 24.7948 30.1875 24.8546C30.0822 24.9143 29.9899 24.9939 29.9157 25.0888C29.8416 25.1837 29.7871 25.2921 29.7555 25.4078C29.7238 25.5235 29.7155 25.6442 29.7311 25.7631C29.7468 25.8819 29.786 25.9966 29.8465 26.1005L33.9114 33.0394L19.1633 38.4959C19.1633 38.4959 19.1633 38.4959 19.0988 38.4959H19.0251L16.6285 39.8601L15.0339 40.7695C14.8239 40.8892 14.5921 40.9669 14.3517 40.9981C14.1113 41.0294 13.867 41.0135 13.6328 40.9514C13.1623 40.826 12.7613 40.5219 12.5175 40.1056L10.674 36.959C10.4571 36.5473 10.4079 36.0694 10.5364 35.6231C10.6649 35.1768 10.9614 34.7958 11.3653 34.5581L14.5546 32.7393L16.8589 36.6771C16.9402 36.8159 17.0571 36.931 17.1979 37.0109C17.3387 37.0907 17.4984 37.1324 17.6609 37.1318C17.823 37.1324 17.9824 37.0909 18.123 37.0113C18.2637 36.9318 18.3805 36.817 18.4619 36.6787C18.5432 36.5403 18.5861 36.3832 18.5863 36.2233C18.5864 36.0633 18.5439 35.9062 18.4628 35.7677L16.0847 31.7116L27.6527 22.2991L28.0306 22.9448C28.0911 23.0487 28.1718 23.1398 28.268 23.2129C28.3643 23.2861 28.4741 23.3398 28.5914 23.371C28.7087 23.4023 28.831 23.4104 28.9515 23.395C29.0719 23.3796 29.1881 23.341 29.2934 23.2812C29.3987 23.2215 29.4911 23.1419 29.5652 23.047C29.6394 22.9521 29.6938 22.8437 29.7255 22.728C29.7572 22.6123 29.7654 22.4916 29.7498 22.3727C29.7342 22.2539 29.695 22.1392 29.6345 22.0353L28.7127 20.462C28.6452 20.3481 28.5533 20.25 28.4435 20.1746C28.3336 20.0993 28.2085 20.0484 28.0767 20.0255C27.9442 20.0009 27.8079 20.0052 27.6773 20.0382C27.5467 20.0712 27.425 20.1321 27.3209 20.2165L14.4163 30.7113L10.4896 32.9484C9.78494 33.3534 9.23622 33.9774 8.92934 34.7229C8.62245 35.4683 8.57471 36.2931 8.79358 37.0681L7.87182 37.5865C7.39689 37.8556 7.01364 38.2578 6.77067 38.742C6.52769 39.2263 6.43593 39.7708 6.50702 40.3066C6.5781 40.8423 6.80884 41.3452 7.16997 41.7514C7.5311 42.1577 8.00636 42.4489 8.53549 42.5884C8.77006 42.6497 9.01179 42.6802 9.25446 42.6793C9.73937 42.6773 10.2156 42.552 10.6371 42.3155L11.5588 41.7971C12.0016 42.2484 12.5585 42.575 13.1719 42.743C13.4869 42.8299 13.8127 42.8727 14.1398 42.8703C14.7877 42.8717 15.4242 42.7022 15.9833 42.3792L16.7852 41.9245L18.6287 45.0802C18.9951 45.7051 19.5976 46.1613 20.3042 46.3488C21.0109 46.5363 21.764 46.4399 22.3987 46.0805C22.7136 45.9015 22.9896 45.6631 23.211 45.3788C23.4324 45.0944 23.5948 44.7699 23.689 44.4236C23.7831 44.0773 23.8072 43.7161 23.7598 43.3606C23.7124 43.0051 23.5944 42.6624 23.4126 42.3519L21.735 39.469L35.5614 34.349C35.6868 34.3025 35.8004 34.2295 35.8943 34.1353C35.9882 34.0411 36.0602 33.9278 36.1052 33.8033C36.1501 33.6803 36.1675 33.5492 36.1564 33.4189C36.1452 33.2887 36.1058 33.1623 36.0407 33.0485L31.4503 25.191ZM9.67846 40.7331C9.5735 40.793 9.45759 40.8318 9.33738 40.8474C9.21717 40.8631 9.09502 40.8551 8.97793 40.8241C8.74177 40.7635 8.53958 40.6131 8.41566 40.4057C8.35498 40.3022 8.3156 40.1878 8.29978 40.0692C8.28396 39.9506 8.29202 39.8301 8.32348 39.7146C8.35495 39.5984 8.40944 39.4896 8.4838 39.3944C8.55816 39.2992 8.65092 39.2194 8.75671 39.1598L9.55864 38.7051L10.4804 40.2784L9.67846 40.7331ZM21.8088 43.2795C21.8694 43.3831 21.9088 43.4974 21.9246 43.616C21.9405 43.7346 21.9324 43.8552 21.9009 43.9707C21.8352 44.2019 21.6795 44.398 21.4677 44.5163C21.2572 44.6357 21.0074 44.6682 20.7727 44.6069C20.538 44.5456 20.3373 44.3954 20.2141 44.1889L18.3706 41.0332L19.9007 40.1693H19.9745L21.8088 43.2795Z" fill="white"/>
</svg>
