<svg width="56" height="56" viewBox="0 0 56 56" fill="none" xmlns="http://www.w3.org/2000/svg">
<path d="M24.5 13.125C24.9832 13.125 25.375 12.7332 25.375 12.25C25.375 11.7668 24.9832 11.375 24.5 11.375C24.0168 11.375 23.625 11.7668 23.625 12.25C23.625 12.7332 24.0168 13.125 24.5 13.125Z" fill="white"/>
<path d="M31.5 13.125C31.9832 13.125 32.375 12.7332 32.375 12.25C32.375 11.7668 31.9832 11.375 31.5 11.375C31.0168 11.375 30.625 11.7668 30.625 12.25C30.625 12.7332 31.0168 13.125 31.5 13.125Z" fill="white"/>
<path d="M28 20.125C30.4124 20.125 32.375 18.1624 32.375 15.75V14.875H23.625V15.75C23.625 18.1624 25.5876 20.125 28 20.125ZM30.4754 16.625C30.114 17.6435 29.141 18.375 28 18.375C26.859 18.375 25.886 17.6435 25.5246 16.625H30.4754Z" fill="white"/>
<path d="M53.4643 33.908C53.3549 33.0339 52.6085 32.375 51.7274 32.375H51.625V31.5H52.5C53.9473 31.5 55.125 30.3223 55.125 28.875C55.125 27.4277 53.9473 26.25 52.5 26.25H51.625C51.625 25.2849 50.8401 24.5 49.875 24.5H48.125C47.1599 24.5 46.375 25.2849 46.375 26.25H46.2018C44.3686 26.25 42.7166 27.4067 42.0901 29.1296L41.4129 30.9925L40.5431 29.253C39.6725 27.5117 38.1194 26.2281 36.2609 25.6795C38.2489 23.5996 39.375 20.8565 39.375 17.92V10.5C39.375 5.19312 35.0569 0.875 29.75 0.875H26.25C20.9431 0.875 16.625 5.19312 16.625 10.5V17.92C16.625 20.8215 17.7581 23.5935 19.7418 25.6786C17.8815 26.2272 16.3284 27.5109 15.4569 29.253L14.5871 30.9925L13.9099 29.1296C13.2834 27.4067 11.6314 26.25 9.79825 26.25H9.625C9.625 25.2849 8.84013 24.5 7.875 24.5H6.125C5.15988 24.5 4.375 25.2849 4.375 26.25H3.5C2.05275 26.25 0.875 27.4277 0.875 28.875C0.875 30.3223 2.05275 31.5 3.5 31.5H4.375V32.375H4.27263C3.39238 32.375 2.646 33.0339 2.53663 33.908L0.89425 47.0382C0.881125 47.1424 0.875 47.2474 0.875 47.3524C0.875 48.7436 2.00638 49.875 3.39763 49.875H10.5C11.8904 49.875 13.0226 48.7436 13.0226 47.3524C13.0226 47.2474 13.0165 47.1424 13.0034 47.04L12.4425 42.553C13.0725 42.7604 13.7331 42.875 14.3955 42.875C16.0668 42.875 17.6383 42.224 18.8204 41.0419L19.292 40.5711L20.0541 45.143C17.2699 47.4757 15.197 50.5199 14.0455 53.9735L13.6605 55.125H42.3386L41.9545 53.9735C40.81 50.54 38.7538 47.5116 35.9459 45.1448L36.708 40.5711L37.1796 41.0427C38.3618 42.224 39.9333 42.875 41.6045 42.875C42.2669 42.875 42.9275 42.7604 43.5584 42.553L42.9975 47.0374C42.9844 47.1415 42.9783 47.2465 42.9783 47.3515C42.9774 48.7436 44.1096 49.875 45.5 49.875H52.6024C53.9936 49.875 55.125 48.7436 55.125 47.3524C55.125 47.2474 55.1189 47.1424 55.1058 47.04L53.4643 33.908ZM48.125 34.125V44.2207L44.7554 47.0846L46.375 34.125H48.125ZM49.0053 45.7686L51.8324 48.125H46.2324L49.0053 45.7686ZM53.3505 47.1117L49.875 44.2155V34.125H51.7274L53.3505 47.1117ZM52.5 28C52.9821 28 53.375 28.392 53.375 28.875C53.375 29.358 52.9821 29.75 52.5 29.75H51.625V28H52.5ZM49.875 26.25V32.375H48.125V26.25H49.875ZM18.375 10.5C18.375 6.15738 21.9083 2.625 26.25 2.625H29.75C34.0918 2.625 37.625 6.15738 37.625 10.5V17.92C37.625 20.7401 36.3965 23.3503 34.2598 25.1632L32.221 24.654L31.7284 22.6835C34.195 21.3517 35.875 18.7442 35.875 15.75V11.4371C35.875 10.318 35.5215 9.25488 34.8749 8.36325L35.6195 7.61862L34.3814 6.38138L33.5379 7.22575C33.1188 7.644 32.5614 7.875 31.969 7.875C30.7458 7.875 29.75 6.87925 29.75 5.65688V4.375H28V5.65688C28 6.38575 28.2118 7.06037 28.5556 7.6475C28.2581 7.791 27.9335 7.875 27.594 7.875C26.3708 7.875 25.375 6.87925 25.375 5.65688V4.375H23.625V5.65688C23.625 5.9255 23.653 6.188 23.7046 6.44175L23.6416 6.454C21.6038 6.86175 20.125 8.666 20.125 10.7441V15.75C20.125 18.7442 21.805 21.3517 24.2708 22.6835L23.7055 24.9436L24.5508 25.7889C25.0749 26.3112 25.375 27.0366 25.375 27.7769C25.375 28.7193 24.9069 29.5934 24.1229 30.1166L23.625 30.4482L23.4334 30.3205C22.4578 29.6695 21.875 28.581 21.875 27.4067L21.8706 25.3015L21.5775 25.0408C19.5423 23.2356 18.375 20.6404 18.375 17.92V10.5ZM24.4685 8.07363C25.1948 9.01075 26.3191 9.625 27.594 9.625C28.3859 9.625 29.1419 9.394 29.7859 8.96525C30.4133 9.38 31.1623 9.625 31.969 9.625C32.473 9.625 32.9604 9.52525 33.4163 9.34675C33.8686 9.94875 34.125 10.6706 34.125 11.4371V15.75C34.125 19.1266 31.3775 21.875 28 21.875C24.6225 21.875 21.875 19.1266 21.875 15.75V10.7441C21.875 9.49638 22.7623 8.414 23.9846 8.16988L24.4685 8.07363ZM25.7889 24.5516L25.6436 24.4072L25.9114 23.3354C26.5781 23.5191 27.2764 23.625 28 23.625C28.7236 23.625 29.4219 23.5191 30.0878 23.3354L30.625 25.4826V28C30.625 28.483 30.2321 28.875 29.75 28.875H26.9903C27.0778 28.5198 27.125 28.1523 27.125 27.7769C27.125 26.5755 26.6376 25.4004 25.7889 24.5516ZM25.8475 37.8289C26.6114 38.0844 27.125 38.7966 27.125 39.6025C27.125 39.8912 27.0568 40.18 26.9273 40.4381L26.6814 40.9307L26.6525 40.9211C25.8886 40.6656 25.375 39.9534 25.375 39.1475C25.375 38.8588 25.4433 38.57 25.5728 38.3119L25.8186 37.8193L25.8475 37.8289ZM25.1773 35.1881L24.9314 35.6807L24.9025 35.6711C24.1386 35.4156 23.625 34.7034 23.625 33.8975C23.625 33.6088 23.6933 33.32 23.8228 33.0619L24.0686 32.5693L24.0975 32.5789C24.8614 32.8344 25.375 33.5466 25.375 34.3525C25.375 34.6412 25.3068 34.93 25.1773 35.1881ZM17.0231 30.0361C17.6593 28.7647 18.7801 27.818 20.125 27.3892V27.4085C20.125 29.1672 20.9991 30.8 22.463 31.7765L22.4971 31.7992L22.2574 32.2787C22.0071 32.7792 21.875 33.3393 21.875 33.8975C21.875 35.3841 22.7833 36.6966 24.1491 37.2453L24.0074 37.5287C23.7571 38.0293 23.625 38.5893 23.625 39.1475C23.625 40.7076 24.619 42.0866 26.0995 42.581L27.5686 43.0701L28.4935 41.2213C28.7429 40.7207 28.875 40.1607 28.875 39.6025C28.875 38.1159 27.9668 36.8034 26.6009 36.2547L26.7426 35.9713C26.9929 35.4707 27.125 34.9107 27.125 34.3525C27.125 33.0934 26.4705 31.9611 25.4433 31.3075C25.6979 31.1001 25.9236 30.8674 26.1249 30.6154C26.1669 30.6171 26.208 30.625 26.25 30.625H29.75C31.1973 30.625 32.375 29.4473 32.375 28V26.495L35.5548 27.2895C37.044 27.6623 38.2909 28.6632 38.9778 30.0361L40.4425 32.9656L37.5673 34.1976C37.6014 33.5904 37.625 32.9823 37.625 32.375H35.875C35.875 34.069 35.7341 35.7752 35.4559 37.4456L34.2589 44.625H21.7411L20.5441 37.4456C20.2659 35.7752 20.125 34.069 20.125 32.375H18.375C18.375 32.9823 18.3986 33.5904 18.4328 34.1976L15.5575 32.9656L17.0231 30.0361ZM6.99475 45.7686L9.76675 48.125H4.16675L6.99475 45.7686ZM7.875 44.2207V34.125H9.625L11.2446 47.0855L7.875 44.2207ZM3.5 29.75C3.01788 29.75 2.625 29.358 2.625 28.875C2.625 28.392 3.01788 28 3.5 28H4.375V29.75H3.5ZM6.125 26.25H7.875V32.375H6.125V26.25ZM4.27263 34.125H6.125V44.2155L2.6495 47.1117L4.27263 34.125ZM17.5831 39.8046C16.7309 40.656 15.5995 41.125 14.3955 41.125C13.6999 41.125 13.0025 40.9605 12.3795 40.649L12.1923 40.5554L11.361 33.908C11.2516 33.0339 10.5053 32.375 9.625 32.375V28H9.79825C10.8981 28 11.8895 28.6947 12.2649 29.7281L14.9266 37.0492L16.5716 36.4508L16.0781 35.0928L18.6008 36.1734C18.662 36.6949 18.732 37.2155 18.8178 37.7318L18.9376 38.4492L17.5831 39.8046ZM39.8668 53.375H16.1333C17.2471 50.6669 19.0146 48.2808 21.3211 46.375H34.6815C36.9688 48.2528 38.7459 50.6494 39.8668 53.375ZM43.6205 40.649C42.9975 40.9605 42.3001 41.125 41.6045 41.125C40.4014 41.125 39.2691 40.656 38.4169 39.8046L37.0615 38.4492L37.1814 37.7318C37.2671 37.2155 37.3371 36.6949 37.3984 36.1734L39.921 35.0928L39.4275 36.4508L41.0725 37.0492L43.7343 29.7281C44.1105 28.6947 45.1019 28 46.2018 28H46.375V32.375C45.4948 32.375 44.7484 33.0339 44.639 33.908L43.8078 40.5554L43.6205 40.649Z" fill="white"/>
</svg>
