<svg width="70" height="70" viewBox="0 0 70 70" fill="none" xmlns="http://www.w3.org/2000/svg">
<g clip-path="url(#clip0)">
<path d="M57.6446 45.0309C56.3933 36.6624 54.5299 28.9524 54.2689 27.8891V23.9004C54.2689 23.3341 53.8098 22.875 53.2435 22.875H52.229L53.0459 18.817C53.3619 17.2473 52.7961 15.6334 51.5695 14.6053L49.4834 12.8568C48.8325 12.3111 48.5323 11.4546 48.7 10.6213L49.5603 6.34826L50.3717 2.31779C50.4834 1.76271 50.1241 1.22213 49.5692 1.11029L44.1629 0.0202344C43.896 -0.0333594 43.6192 0.0207812 43.3926 0.171445C43.1661 0.321973 43.0086 0.556309 42.955 0.823047L42.1436 4.85352L41.2833 9.12652C41.1156 9.95955 40.5077 10.6328 39.6967 10.8835L37.0967 11.6871C37.0882 11.6897 37.0796 11.6925 37.0711 11.6952C37.0598 11.6504 37.0456 11.6061 37.0281 11.5626L34.3679 4.95728V1.02539C34.3679 0.459102 33.9088 0 33.3426 0H28.3244C27.7581 0 27.299 0.459102 27.299 1.02539C27.299 1.59168 27.7581 2.05078 28.3244 2.05078H32.3172V4.13041H22.5671V2.05078H23.6018C24.168 2.05078 24.6271 1.59168 24.6271 1.02539C24.6271 0.459102 24.168 0 23.6018 0H21.5417C20.9754 0 20.5163 0.459102 20.5163 1.02539V4.95715L17.8641 11.5429C17.8172 11.6524 17.7889 11.7719 17.7831 11.8971C17.783 11.8992 17.783 11.9012 17.7829 11.9033C17.7826 11.9108 17.7823 11.9185 17.7822 11.926C17.7822 11.929 17.7821 11.9321 17.7821 11.9351C17.7821 11.9387 17.7819 11.9421 17.7819 11.9457V22.875H16.7565C16.1902 22.875 15.7311 23.3341 15.7311 23.9004V27.8891C15.4701 28.9525 13.6067 36.6624 12.3554 45.0309C11.5642 50.3218 11.1676 54.8453 11.1765 58.4758C11.1881 63.2492 11.8835 66.453 13.3021 68.2702C14.1854 69.4019 15.3799 70 16.7564 70H19.9105C20.4768 70 20.9359 69.5409 20.9359 68.9746C20.9359 68.4083 20.4768 67.9492 19.9105 67.9492H16.7564C16.0037 67.9492 15.4198 67.6502 14.9187 67.0083C10.7754 61.7009 15.2562 38.5239 17.5599 29.0392H52.44C54.7437 38.5239 59.2245 61.7009 55.0811 67.0083C54.58 67.6502 53.996 67.9492 53.2435 67.9492H24.7107C24.1444 67.9492 23.6853 68.4083 23.6853 68.9746C23.6853 69.5409 24.1444 70 24.7107 70H53.2435C54.62 70 55.8145 69.4019 56.6978 68.2702C58.1164 66.453 58.8118 63.2491 58.8234 58.4758C58.8324 54.8453 58.4358 50.3217 57.6446 45.0309ZM48.1588 2.91799L47.752 4.93801L46.201 4.62533L44.3562 4.25346L44.7629 2.23344L48.1588 2.91799ZM40.3024 12.8428C41.8316 12.37 42.9778 11.1012 43.2939 9.53121L43.9518 6.26377L45.5029 6.57645L47.3476 6.94832L46.6894 10.2166C46.3735 11.7862 46.9392 13.4002 48.166 14.4285L50.2521 16.177C50.903 16.7226 51.2032 17.579 51.0355 18.4123L50.1371 22.875H47.6725L48.5743 18.3951C48.686 17.84 48.3267 17.2994 47.7717 17.1876L39.4952 15.5188C38.9461 15.4083 38.4106 15.7579 38.2908 16.3047L36.8517 22.875H34.6116L36.1158 15.4036C36.2835 14.5705 36.8914 13.8973 37.7024 13.6466L40.3024 12.8428ZM45.5805 22.8748H38.9512L40.0784 17.7283L46.3616 18.9952L45.5805 22.8748ZM22.2342 6.18119H32.6502L34.5587 10.9201H20.3257L22.2342 6.18119ZM19.8327 12.9709H35.1109C34.6123 13.5365 34.2597 14.2316 34.1053 14.9987L34.1046 15.0024H22.8398C22.2735 15.0024 21.8144 15.4615 21.8144 16.0278V22.875H19.8327V12.9709ZM17.7819 26.9884V24.9256H25.9383C26.5046 24.9256 26.9637 24.4665 26.9637 23.9002C26.9637 23.3339 26.5046 22.8748 25.9383 22.8748H23.8652V17.0531H33.6917L32.5198 22.8748H30.6425C30.0762 22.8748 29.6171 23.3339 29.6171 23.9002C29.6171 24.4665 30.0762 24.9256 30.6425 24.9256H52.2182V26.9884H17.7819Z" fill="white"/>
<path d="M34.9441 56.5444C38.0991 56.5444 41.1418 55.3926 43.5117 53.3015C43.9363 52.9268 43.9768 52.2789 43.6021 51.8542C43.2275 51.4297 42.5794 51.3891 42.1548 51.7639C40.1599 53.5241 37.599 54.4936 34.9441 54.4936C28.9245 54.4936 24.0271 49.5921 24.0271 43.5673V36.1204H26.0779V43.5673C26.0779 48.4595 30.0552 52.4397 34.9441 52.4397C39.833 52.4397 43.8103 48.4595 43.8103 43.5673V36.1204H45.8611V43.5673C45.8611 45.314 45.4598 46.9836 44.6685 48.53C44.4105 49.0341 44.6101 49.652 45.1142 49.91C45.618 50.1678 46.2361 49.9683 46.4941 49.4642C47.4216 47.6519 47.9117 45.6127 47.9117 43.5673V36.1204H48.9371C49.5034 36.1204 49.9625 35.6613 49.9625 35.095C49.9625 34.5287 49.5034 34.0696 48.9371 34.0696H40.734C40.1677 34.0696 39.7086 34.5287 39.7086 35.095C39.7086 35.6613 40.1677 36.1204 40.734 36.1204H41.7594V43.5673C41.7594 47.3287 38.7021 50.3889 34.9439 50.3889C31.1858 50.3889 28.1285 47.3287 28.1285 43.5673V36.1204H29.1539C29.7202 36.1204 30.1793 35.6613 30.1793 35.095C30.1793 34.5287 29.7202 34.0696 29.1539 34.0696H20.9508C20.3845 34.0696 19.9254 34.5287 19.9254 35.095C19.9254 35.6613 20.3845 36.1204 20.9508 36.1204H21.9762V43.5673C21.9763 50.7227 27.7937 56.5444 34.9441 56.5444Z" fill="white"/>
</g>
<defs>
<clipPath id="clip0">
<rect width="70" height="70" fill="white"/>
</clipPath>
</defs>
</svg>
