<svg width="1920" height="74" viewBox="0 0 1920 74" fill="none" xmlns="http://www.w3.org/2000/svg">
<path d="M1407 55.9375L1414.44 52.2461L1418.23 45L1422.02 52.2461L1429.46 55.9375L1422.02 59.6289L1418.23 66.875L1414.44 59.6289L1407 55.9375Z" fill=" #f6716f"/>
<path d="M1042 17L1047.3 14.3L1050 9L1052.7 14.3L1058 17L1052.7 19.7L1050 25L1047.3 19.7L1042 17Z" fill="white"/>
<path d="M952 54L957.3 51.3L960 46L962.7 51.3L968 54L962.7 56.7L960 62L957.3 56.7L952 54Z" fill="white"/>
<path d="M1464.45 66.0001L1469.6 63.6376L1472.22 59.0001L1474.85 63.6376L1480 66.0001L1474.85 68.3626L1472.22 73.0001L1469.6 68.3626L1464.45 66.0001Z" fill="#F5F5F5"/>
<path d="M1795 67L1800.15 64.6375L1802.78 60L1805.4 64.6375L1810.55 67L1805.4 69.3625L1802.78 74L1800.15 69.3625L1795 67Z" fill="#f6716f"/>
<path d="M0.5 26.5C99.3333 40.8333 379.9 50.7 715.5 41.5C1135 30 1334.5 26 1649 41.5C1900.6 53.9 1924.5 66 1929 66H1935" stroke="white" stroke-width="2"/>
<path d="M442 16.5L453.263 10.9312L459 5.3345e-07L464.737 10.9313L476 16.5L464.737 22.0688L459 33L453.262 22.0688L442 16.5Z" fill="#013b72"/>
<path d="M509 59.9551L519.27 55.2452L524.502 46L529.734 55.2452L540.004 59.9551L529.734 64.6649L524.502 73.9102L519.27 64.6649L509 59.9551Z" fill="#013b72"/>
<path d="M1210.73 47.4998L1219.2 43.6185L1223.51 35.9998L1227.82 43.6185L1236.28 47.4998L1227.82 51.381L1223.51 58.9998L1219.2 51.381L1210.73 47.4998Z" fill="#013b72"/>
<path d="M293 35.9688L305.225 29.9043L311.453 18L317.68 29.9043L329.905 35.9688L317.68 42.0332L311.453 53.9375L305.225 42.0332L293 35.9688Z" fill=" #f6716f"/>
</svg>
