<svg width="56" height="56" viewBox="0 0 56 56" fill="none" xmlns="http://www.w3.org/2000/svg">
<g clip-path="url(#clip0)">
<path d="M52.7965 19.4823L45.4898 8.0512C45.2889 7.73675 44.9414 7.54655 44.5682 7.54655C44.1951 7.54655 43.8477 7.73675 43.6467 8.0512L36.34 19.4823C36.1247 19.819 36.1103 20.2462 36.3022 20.5967C36.4942 20.9472 36.862 21.165 37.2616 21.165H40.1642V25.6247C38.295 23.4028 35.8296 21.6981 33.0168 20.76V15.7344H36.6591C37.0587 15.7344 37.4265 15.5165 37.6185 15.166C37.8104 14.8155 37.796 14.3883 37.5807 14.0516L28.9216 0.504656C28.7206 0.190203 28.3732 0 28 0C27.6268 0 27.2794 0.190203 27.0784 0.504656L18.4193 14.0515C18.2041 14.3882 18.1896 14.8154 18.3816 15.1659C18.5735 15.5164 18.9414 15.7343 19.3409 15.7343H22.9832V20.7598C20.1704 21.6979 17.705 23.4025 15.8359 25.6245V21.1652H18.7385C19.138 21.1652 19.5058 20.9473 19.6978 20.5968C19.8897 20.2463 19.8753 19.8191 19.6601 19.4824L12.3534 8.0512C12.1524 7.73675 11.805 7.54655 11.4318 7.54655C11.0586 7.54655 10.7112 7.73675 10.5102 8.0512L3.20349 19.4823C2.98824 19.819 2.97381 20.2462 3.16576 20.5967C3.35771 20.9472 3.72554 21.165 4.12509 21.165H7.02768V54.9062C7.02768 55.5102 7.51735 56 8.12143 56H14.7421C15.3462 56 15.8359 55.5102 15.8359 54.9062V46.0567C17.705 48.2787 20.1704 49.9833 22.9832 50.9214V54.9062C22.9832 55.5102 23.4729 56 24.077 56H31.9231C32.5272 56 33.0168 55.5102 33.0168 54.9062V50.9214C35.8296 49.9833 38.295 48.2787 40.1642 46.0567V54.9062C40.1642 55.5102 40.6538 56 41.2579 56H47.8786C48.4827 56 48.9723 55.5102 48.9723 54.9062V21.1652H51.8749C52.2745 21.1652 52.6423 20.9473 52.8343 20.5968C53.0262 20.2462 53.0118 19.819 52.7965 19.4823ZM24.077 13.5469H21.3381L28 3.12452L34.6619 13.5469H31.9231C31.319 13.5469 30.8293 14.0366 30.8293 14.6406V20.201C29.9109 20.0353 28.9654 19.9487 28 19.9487C27.0347 19.9487 26.0891 20.0353 25.1707 20.201V14.6406C25.1707 14.0366 24.681 13.5469 24.077 13.5469ZM13.6484 53.8125H9.21518V20.0714C9.21518 19.4674 8.72551 18.9777 8.12143 18.9777H6.12228L11.4318 10.6712L16.7412 18.9777H14.7421C14.138 18.9777 13.6484 19.4674 13.6484 20.0714V29.018C12.661 31.0863 12.108 33.4002 12.108 35.8407C12.108 38.2811 12.661 40.5951 13.6484 42.6634V53.8125ZM30.8293 53.8125H25.1707V51.4804C26.0891 51.6461 27.0346 51.7327 28 51.7327C28.9654 51.7327 29.9109 51.6461 30.8293 51.4804V53.8125ZM28 49.5451C20.4434 49.5451 14.2955 43.3974 14.2955 35.8407C14.2955 28.2839 20.4434 22.1363 28 22.1363C35.5566 22.1363 41.7045 28.284 41.7045 35.8408C41.7045 43.3975 35.5566 49.5451 28 49.5451ZM47.8786 18.9777C47.2745 18.9777 46.7848 19.4674 46.7848 20.0714V53.8125H42.3517V42.6634C43.3389 40.595 43.892 38.2812 43.892 35.8408C43.892 33.4003 43.339 31.0865 42.3517 29.0182V20.0714C42.3517 19.4674 41.862 18.9777 41.2579 18.9777H39.2587L44.5681 10.6712L49.8776 18.9777H47.8786Z" fill="white"/>
<path d="M29.8782 34.9751C29.6343 34.8889 29.4047 34.8068 29.1892 34.7288V30.4615C29.8162 30.6108 30.2479 30.9149 30.4487 31.2011C30.7956 31.6956 31.4779 31.8153 31.9723 31.4681C32.4668 31.1212 32.5863 30.4391 32.2394 29.9445C31.6583 29.1164 30.5885 28.43 29.1892 28.2338V27.848C29.1892 27.2441 28.6996 26.7543 28.0955 26.7543C27.4914 26.7543 27.0017 27.2441 27.0017 27.848V28.3209C26.7807 28.3664 26.5552 28.4232 26.3256 28.4924C24.8277 28.9435 23.6969 30.4005 23.5756 32.0354C23.4561 33.6453 24.3156 35.0453 25.8743 35.7802C26.116 35.8943 26.5046 36.055 27.0016 36.2475V41.3005C26.2673 41.1108 25.5776 40.7622 25.1418 40.2212C24.763 39.7509 24.0744 39.6766 23.6039 40.0555C23.1335 40.4345 23.0593 41.123 23.4382 41.5935C24.3442 42.7181 25.6977 43.3039 27.0016 43.5391V43.8333C27.0016 44.4372 27.4913 44.927 28.0954 44.927C28.6995 44.927 29.1891 44.4372 29.1891 43.8333V43.6243C31.9339 43.327 33.1255 41.5777 33.3234 40.019C33.5974 37.8632 32.1807 35.789 29.8782 34.9751ZM26.8075 33.802C25.8737 33.3617 25.7209 32.6863 25.7572 32.1973C25.8121 31.4571 26.3165 30.7799 26.9566 30.5871C26.9717 30.5825 26.9867 30.5781 27.0017 30.5738V33.8887C26.9225 33.8547 26.8578 33.8257 26.8075 33.802ZM31.1535 39.7435C31.0406 40.6321 30.3313 41.2307 29.1892 41.4175V37.0519C30.7031 37.6048 31.2695 38.8308 31.1535 39.7435Z" fill="white"/>
</g>
<defs>
<clipPath id="clip0">
<rect width="56" height="56" fill="white"/>
</clipPath>
</defs>
</svg>
